<svg width="128" height="128" viewBox="0 0 128 128" fill="none" xmlns="http://www.w3.org/2000/svg">
<path fill-rule="evenodd" clip-rule="evenodd" d="M87.8497 116.017C70.5574 108.544 65.9921 91.3741 70.8962 77.9691C70.8962 77.9691 82.2406 81.4891 91.2032 84.2994C100.166 87.1097 105.681 83.7353 108.753 79.348C111.886 74.9606 112.827 68.2337 107.374 61.6733C101.921 55.1129 89.699 40.1127 89.699 40.1127L120.285 4.51268L113.892 0L80.8617 20.0155C77.2906 19.2215 73.5782 18.8028 69.768 18.8028C41.6606 18.8028 18.875 41.5884 18.875 69.6958C18.875 99.4443 42.1492 120.25 71.0656 120.25C76.3552 120.25 84.1133 118.839 87.8497 116.017Z" fill="url(#paint0_linear_6658_815)"/>
<path fill-rule="evenodd" clip-rule="evenodd" d="M64.1832 75.8689C60.2396 88.5951 62.7718 105.27 73.8856 114.255C39.1876 111.787 26.6324 65.9437 53.9725 45.1268C47.5924 57.5844 47.6584 68.4969 61.896 74.9416C62.7723 75.3383 63.5522 75.643 64.1832 75.8689ZM53.9224 45.2842C53.9389 45.2318 53.9556 45.1793 53.9725 45.1268C53.9726 45.1267 53.9726 45.1269 53.9728 45.1268C53.9559 45.1793 53.9391 45.2318 53.9224 45.2842Z" fill="#DAE4F2"/>
<path d="M105.266 71.4337C105.238 69.873 104.679 67.8454 102.745 65.5194C95.72 57.0672 88.7955 48.5305 81.8531 40.0104L106.158 11.7215L73.4019 30.8367L75.1569 25.1396C48.4954 21.8637 24.8906 43.1204 24.8906 69.6959C24.8906 96.1312 47.4375 114.96 73.8854 114.255C49.7711 108.546 34.0531 72.6457 53.9723 45.1269C47.454 65.4339 67.3902 70.5818 67.3902 70.5818L93.0022 78.5581C96.4542 79.6405 98.7034 79.383 100.143 78.8634C101.622 78.3296 102.838 77.3037 103.822 75.8975L103.838 75.8741L103.855 75.8507C104.754 74.5926 105.295 73.0586 105.266 71.4337Z" fill="white"/>
<path fill-rule="evenodd" clip-rule="evenodd" d="M76.3733 51.9209C76.5049 51.6749 76.6205 51.4165 76.7183 51.1465C77.8218 48.1012 76.2525 44.7318 73.213 43.6207C70.1736 42.5095 66.8151 44.0774 65.7115 47.1227C65.6142 47.3914 65.5376 47.6626 65.481 47.9345C67.4078 47.2998 69.5543 47.2855 71.6096 48.0369C73.6672 48.7891 75.3037 50.1881 76.3733 51.9209Z" fill="#7373BF"/>
<defs>
<linearGradient id="paint0_linear_6658_815" x1="120.282" y1="4.11158" x2="29.3874" y2="99.5914" gradientUnits="userSpaceOnUse">
<stop stop-color="#FEC519"/>
<stop offset="0.278985" stop-color="#E62E5C"/>
<stop offset="0.760754" stop-color="#45A3E6"/>
<stop offset="1" stop-color="#5CE6C3"/>
</linearGradient>
</defs>
</svg>
